<svg version="1" xmlns="http://www.w3.org/2000/svg" width="1070.667" height="1070.667" viewBox="0 0 803.000000 803.000000"><path d="M607 158.8c-63.9 3.6-118.6 43.5-138.8 101.2-3.4 9.9-6.6 23.7-7.2 31.5-.1 1.1-1.3-2.1-2.6-7-5.4-19.5-18.5-40.9-34.6-56-18.1-17.1-39.8-28.3-70.8-36.6l-8.5-2.3h-312l-.3 49.2c-.2 39 0 49.2 1 49.3.7 0 22.9.1 49.3.2l48 .2.2 177.5c.1 97.6.2 177.7.2 178 .1.3 7.2.5 15.9.4 8.6-.1 58.9-.3 111.7-.4 52.8-.1 98.7-.5 102-1 10.2-1.3 14.9-2.1 16.7-2.6.9-.3 2.5-.7 3.7-.9 5.4-1 17.8-4.9 24.3-7.6 16.5-6.8 29.5-15.5 42.3-28.4 9.9-9.9 16.6-19.4 22.8-32.2l4-8.4 3.4 6.3c14 25.4 32.4 43.6 57.5 56.8 15.6 8.2 30.5 13 51.3 16.5 11.3 1.9 34.4 2.5 47.3 1.1 14.2-1.4 28.2-5 42.7-10.9 20.3-8.2 34.5-17.7 50.6-33.7 28.5-28.3 43.1-63 43.2-102.4 0-8.8-.8-20.6-1.8-25.6-.3-1.4-.9-4.9-1.5-7.8-2.8-15.5-11.8-36.3-20.9-48.2-10.2-13.5-23.3-25.3-38.9-34.9-8.5-5.3-28.3-15.1-30.5-15.1-.7 0-1.7-.4-2.2-.9-1.4-1.3-22.7-8.2-37-12.1-41.6-11.1-56.6-19.1-63.6-33.7-3-6.2-3.1-7-2.7-16.2.5-11.9 3.9-20 11.5-27.8 8.5-8.8 23.7-14.3 37.7-13.7 25.2 1.1 41.7 16.2 44.4 40.6l.7 6.3 51.5.1c47.3 0 54.9-.3 53.6-2.5-.2-.3-.7-3.3-1.1-6.6-1-9.8-1.5-12.4-4.2-24.4-15-68-61.9-109.1-130.8-114.6-9.5-.8-21.2-1.1-27.5-.7zm37.7 23.7c10.5 1.9 10.7 2 19.3 4.8 12.3 4.1 26.5 11.3 31.4 15.9 1.1 1 2.3 1.8 2.6 1.8.4 0 2.9 2 5.5 4.4l4.9 4.4-8.6-4.3c-16.2-7.9-32-11.5-52.3-11.9-13.9-.3-21.5.2-21.5 1.3 0 .5 1.9 1.3 4.2 2 5.3 1.6 9.4 5.7 10.7 10.7.9 3.5.7 14.8-.3 19.9-.3 1.1-.5 3.9-.5 6.3-.1 2.4-.5 4.1-.9 3.8-.5-.3-2.8-.8-5.3-1.1-2.4-.3-5.3-.8-6.4-1-1.1-.2-4.1-.4-6.6-.4l-4.6-.1v-59.2l10.3.6c5.6.4 13.8 1.3 18.1 2.1zm-284 35.1c35 11.6 64.7 44.7 70.8 78.9.4 2.2.9 5.1 1.2 6.5 2.1 10.9-.1 35.4-4.2 47.5-7.5 21.8-23.6 40.6-47.1 54.9-5.5 3.3-6.1 4-6 6.8.1 2.8 1 3.6 9.1 8.5 13.3 8 22.9 15.5 33.5 26.2 18.2 18.4 28.7 38.1 32.3 61.1 1.3 8.2 1.4 24.8.2 30-.3 1.4-.8 3.8-1 5.5-2.9 16.6-14.2 36.4-28.2 49.6-14.5 13.5-37.5 24.6-56.8 27.4-2.2.4-5.1.9-6.5 1.2-1.4.3-27.1.7-57.1.9-51.2.3-54.7.2-55.1-1.4-.2-.9-.2-2.8.2-4.2l.5-2.5H293c25.6 0 49.2-.3 52.5-.7 3.3-.4 9.4-1 13.5-1.4 4.1-.3 8.2-.9 9.2-1.3.9-.3-25.8-.6-59.5-.5-33.7 0-61.6-.3-62.2-.7-.9-.6-1-2.8-.6-8.7.1-1.6 4.4-1.7 77.6-1.7 76.3 0 77.6 0 80.1-2l2.5-2H246.5l-.5-3.5c-.3-1.9-.4-4.4-.2-5.6l.4-2.1 86.4.1 86.5.1 2-2.1 1.9-2.1h-88c-48.4 0-88.3-.3-88.7-.7-.7-.7-.8-12.4-.1-13.1.2-.3 18.8-.5 41.4-.6 35.5-.1 42-.3 49.4-1.9 25.6-5.5 41.9-18.5 49.1-39.1 1.8-5.1 2.3-8.7 2.3-17.4.1-14.3-.9-19.1-6.5-29.5-9.1-17.2-30-30.2-53.4-33.4-2.2-.3-21.6-.5-43.2-.6-43.5 0-40.3.5-39.5-6.6l.4-3.1 71.6-.1c39.5 0 72.1-.1 72.6-.1.6-.1.1-.8-1-1.6-1.6-1.2-12-1.4-72.6-1.5H246l-.1-2.5c-.1-1.4-.1-3.2-.1-4 0-4.8-4.2-4.5 63-4.5h62.7l-3-2c-2.9-1.9-4.8-2-62.7-2-66.8 0-60.6.8-60-7.4l.4-4.1 61.7.2c59.2.1 61.7.1 64.1-1.8 2.3-1.7 2.4-1.9.5-1.9-1.1-.1-30-.2-64.2-.2-34.3 0-62.3-.3-62.4-.6 0-.4-.1-2.4-.2-4.5l-.2-3.7h29c40.5-.1 45.3-.6 60.2-6 25-9.2 40.2-30.1 40.8-56.4.7-24.6-13.2-45.9-36.8-56.6-7.2-3.3-15.3-5.7-21.7-6.5-2.5-.3-5.4-.8-6.5-1-1.1-.2-7.8-.4-14.9-.4l-13-.1 7.4-5.1 7.4-5h51.8c28.5 0 51.8-.4 51.8-.9 0-3-3.2-3.2-50.1-3.2-26 0-46.8-.3-46.3-.7.5-.4 4.1-2.9 7.9-5.6l7-4.8h32.8c18 0 32.7-.2 32.7-.6 0-.3-1.1-1.3-2.3-2.1-1.9-1.4-6.4-1.6-29.5-1.5-14.9 0-27.2-.1-27.2-.1 0-.1 3.3-2.4 7.3-5.2 7.1-4.9 7.3-5 15-5 4.3 0 8.1-.2 8.3-.5.2-.2-2.1-.9-5.2-1.6l-5.5-1.3 3.8-2.9c4.5-3.3 4.8-3.4 11-1.3zm-45.2 71.2c23.7 7.2 35.6 28.8 29 52.5-2.6 9.1-12 19.9-20.9 24-10 4.6-14.2 5.1-46.6 5.1l-30.5.1-.1-41.2c-.1-22.7.1-41.1.5-40.9.3.2 1.6-.1 2.8-.7 1.5-.8 10.7-1.2 30.5-1.1 25.9 0 28.9.2 35.3 2.2zm-100 166.4c0 166.1 0 166.8-2 166.9-1.1 0-13.2.1-27 .1l-25 .1-.3-167-.2-167h54.5v166.9zm255.4-91.3c17 40 52.4 65 127.1 89.6 28.8 9.5 41.6 15.6 51.4 24.6 19.3 17.6 14.7 48.5-8.8 59.9-7.6 3.7-9.8 4.2-21.8 4.7-8.1.4-10.9.1-16.5-1.7-19.1-6.2-31.9-23.4-33.2-44.5-.1-.7-15.3-1-45.6-1h-45.4l-1.2-4.9c-6-25.2-25.4-50.4-55.4-72.3-5.2-3.7-9.4-7.3-9.4-7.8 0-.6 2.4-2.7 5.2-4.8 7.3-5.2 19.6-17.3 25.7-25.4 6.7-8.7 14.3-24.7 16.5-34.3.9-4.1 1.9-8.4 2.2-9.4.3-1.1 1.7 2.6 3.3 9 1.5 6 4.2 14.2 5.9 18.3zM326.2 466.5c19.8 4.2 32.1 17.8 33.2 36.5.9 16.3-6.1 29.4-19.6 36.2-10.3 5.3-13.5 5.6-55.1 5.6h-38.4v-79.6h36.8c26.7 0 38.5.4 43.1 1.3zm222.3 56.9c9.4 23 33.8 39.4 61.5 41.2 1.9.1 4.1.3 4.8.3.9.1 1.2 6.6 1.2 29.2v29.1l-9.7-.6c-33.5-1.8-65.3-15.6-87.9-38.1-16-15.7-27.4-37-29.8-55-.4-2.8-.9-6.3-1.2-7.8-.2-1.5-.2-3.2.1-3.8.4-.6 11.9-.8 29.6-.7l29 .3 2.4 5.9z"/><path d="M345.5 268.1c3.7 1.7 6.7 1.8 35.8 1.9 31.5 0 31.8 0 30.7-2-1-1.9-2.1-2-35.8-1.9l-34.7.1 4 1.9zM365.5 283c1.7 1.9 3.1 2 28.2 2 26.1 0 26.4 0 25.3-2-1-1.9-2.1-2-28.2-2-27 0-27.1 0-25.3 2zM375 297c0 2.2 4.5 2.6 25.5 2.6 19.7-.1 23-.3 23-1.6s-3.5-1.5-24.2-1.6c-13.4-.1-24.3.2-24.3.6zM381.4 311.2c-.2.3-.1 1.3.2 2.2.5 1.3 3.6 1.5 22 1.5H425v-4.4h-21.6c-11.9 0-21.8.3-22 .7zM385.3 326c-1 .3-1.9 1.2-2.1 2.2-.2 1.5 1.7 1.6 20.7 1.6 19.7 0 20.9-.1 21.4-1.9.3-1 0-1.9-.6-2-6.7-.3-38-.3-39.4.1zM381.6 342.6c-.3.9-.6 1.8-.6 2 0 .2 9.2.4 20.4.4 19.5 0 20.4-.1 20.9-2 .5-2 0-2-19.8-2-17.6 0-20.4.2-20.9 1.6zM377.2 358c-1.2 2-1 2 18.1 2 18.7 0 21.7-.4 21.7-3.2 0-.4-8.7-.8-19.3-.8-18.1 0-19.3.1-20.5 2zM367.4 372.1c-.7.8-1.4 1.8-1.4 2 0 .2 9.1.4 20.2.4 19.8 0 21.2-.2 20.9-3.2-.1-.4-8.7-.8-19.1-.8-16.3 0-19.3.2-20.6 1.6zM351.2 387.5l-2.4 2.1 21.5-.1c16.5 0 21.8-.3 23.1-1.4.9-.7 1.6-1.6 1.6-2 0-.4-9.3-.7-20.7-.7-19.5 0-20.8.1-23.1 2.1zM360 445.6c0 .1 1.2 1 2.8 2 2.4 1.6 5.2 1.8 24.5 1.9 11.9 0 21.7-.1 21.7-.3 0-.2-.8-1.1-1.7-2-1.4-1.5-4.5-1.7-24.5-1.7-12.5 0-22.8 0-22.8.1zM378.7 461.7c.9 2.3 4.1 2.6 23.9 2.7 19 .1 20.1 0 19-1.6-.6-1-1.3-1.9-1.6-1.9-.3-.1-9.8-.2-21.1-.3-15.5-.1-20.5.2-20.2 1.1zM389 475.8c0 .2.4 1.1 1 2.1.8 1.6 2.8 1.8 21 1.8 11 0 20-.2 20-.6-.1-3-2.1-3.3-21.9-3.5-11 0-20.1 0-20.1.2zM397.7 490.8c-2 .3-2.7.8-2.5 2 .3 1.5 2.6 1.7 21.6 2 20.7.2 21.2.2 21.2-1.8 0-2.2 2.1-2-23.5-2.3-7.7-.1-15.3-.1-16.8.1zM396.6 506.5c-.3.8 0 1.7.6 2.1 1.3.8 43.7.8 44.5 0 .3-.3.3-1.2 0-2-.8-2.1-44.2-2.3-45.1-.1zM395 521.7c0 .7.1 1.6.3 2 .1.5 11.1.8 24.5.8 23.7 0 24.3 0 24-2-.3-1.9-1.1-2-24.5-2-18.9 0-24.3.3-24.3 1.2zM390 535.8c-.6.2-1.4 1.1-1.9 2-.8 1.6 1.1 1.7 25.7 1.7 14.7 0 27.3-.4 28-.8.6-.5 1.2-1.4 1.2-2 0-1-6.3-1.2-26-1.2-14.3 0-26.4.1-27 .3zM382.4 550.8c-2.6.2-4.9 1.1-5.9 2.2-1.8 1.9-1.3 2 29.8 1.9 27.7 0 31.6-.2 32.1-1.6.4-.9.5-1.8.2-2-.4-.5-50.3-.9-56.2-.5zM358.9 566.1c-1.9.4-4.5 1.1-5.9 1.7-2.4 1-2.4 1.1 1 1.2 12.4.4 76.1.1 77-.5.5-.3 1-1.2 1-1.8 0-.9-8.6-1.2-34.9-1.2-19.1 0-36.3.3-38.2.6z"/></svg>