<svg version="1" xmlns="http://www.w3.org/2000/svg" width="1070.667" height="1070.667" viewBox="0 0 803.000000 803.000000"><path d="M601.9 159c-48.6 4.6-90.8 29-117 67.7-11 16.2-19.7 37.9-22.6 56.7l-1.7 10.4-1.8-6.9c-7.7-30.4-29.6-58.8-58.8-76.1-10.7-6.4-20.4-10.6-37.2-16l-13.3-4.3-158.7-.3L32 190v98h99v356h109c70 0 112.6-.4 118.8-1.1 36.6-4 66.3-17.1 88.2-39 9.9-9.8 19.6-23.7 23.7-34 1.6-3.8 3-6.9 3.3-6.9.3 0 1.8 2.4 3.3 5.4 7.5 14.3 18.2 27.8 31 39.3 39.1 35 105.9 46.7 160 28.2 22.2-7.6 41.5-19.7 58.7-36.9 13.4-13.3 21.7-25 29.5-41.3 9.8-20.3 13.5-37.5 13.5-61.7 0-53-21.6-91.7-65.5-117.5-18.8-11.1-33.7-16.9-69.1-27-12.6-3.6-26-7.7-29.9-9.2-15.5-5.7-26-13.3-31-22.4-2.8-5.1-3-6.1-3-16.4 0-10.3.2-11.4 3.2-17.7 5.7-12 17.4-21 31.1-23.9 7.8-1.6 25.4-.7 31.2 1.6 15.8 6.3 25.8 19.7 27.8 37.3l.7 6.7 52.3.3 52.2.2v-4.1c0-6-2.8-22.9-5.7-34.4-15.4-61.8-57.6-100.3-119.3-108.9-13.8-1.9-32.4-2.6-43.1-1.6zm43.1 23.6c22.5 3.9 44.3 13.9 59 27.2l4.5 4.1-7.7-3.8c-17-8.4-35.3-12.4-56.8-12.4-15.6 0-23.2 1.4-15 2.7 6 .9 11.5 6.5 12.5 12.5.4 2.5.2 9.8-.5 16.6l-1.3 12.1-6.6-1.2c-3.6-.8-9-1.3-11.8-1.4H616v-59.3l10.2.7c5.6.4 14.1 1.4 18.8 2.2zm-281.8 35.8c34.6 13 60.9 42.7 68.4 77.1 2.1 9.7 2.4 33.1.5 42-5.7 27.5-19.7 47.3-46.1 65.1-9 6.1-10 7.1-10 9.8 0 2.8.8 3.5 6.8 7 25.3 14.7 46.4 35.7 57.4 57.1 8.4 16.5 11.2 28.5 11.2 47.5-.1 14.8-1.4 21.8-6.4 34.9-5.9 15.2-19.6 32.7-33.6 42.7-8.8 6.3-25.7 14.1-36.6 16.8-15.5 3.9-26.8 4.6-79.3 4.6H246v-9l49.8-.1c33.8-.1 52.9-.5 59.7-1.4 8.9-1.1 3.6-1.3-49.7-1.4L246 611v-12h77.8c66.7-.1 78-.3 79.6-1.5 1.8-1.3-7.4-1.5-77.7-1.5H246v-12h86.1c84 0 89.9-.2 89.9-3 0-.6-32.1-1-88-1h-88v-14h38.4c21.5 0 41.9-.5 46.3-1.1 10.5-1.4 25.5-6.6 32.5-11.2 24.2-16.1 32.4-46.7 19.7-73.4-2.3-5-5.4-9-11.3-14.8-9.2-9.2-17.2-13.9-31.1-18.1l-9-2.8-42.7-.4-42.8-.4V434h72.1c64 0 72-.2 70.9-1.5-1.1-1.3-10.3-1.5-72.1-1.5H246v-11h62.3c62-.1 62.2-.1 59.8-2-2.3-1.9-4.1-2-62.2-2H246v-11h61.3c59.4 0 61.3-.1 64.2-2l3-2H246v-8.8l34.8-.4c33.4-.5 35.1-.6 44.3-3 25.9-7 42.5-22.3 48.5-44.9 2-7.7 2.3-21.4.5-28.9-4.6-19.3-19.2-35.3-39.5-43.4-10.4-4.2-18.6-5.6-35.8-6.3l-15.8-.6 6.9-4.8 6.9-4.9h52.1c29.2 0 52.1-.4 52.1-.9 0-2.8-3.8-3.1-50.1-3.3l-47.4-.3 7.7-5.3 7.7-5.2h33.2c33.1 0 33.2 0 31.4-2-1.7-1.9-3.3-2-29.9-2.2l-28.1-.3 7.4-5.3c7.5-5.2 7.5-5.2 15.5-5.3l8.1-.1-4.8-1.3c-2.7-.7-5.1-1.5-5.3-1.8-.7-.7 7-5.7 8.8-5.7 1 0 4.6 1.1 8 2.4zm-46.3 70.5c20.9 7.3 32 24.7 29 45.8-2.3 16.2-12.6 28.1-28.9 33.5-6 2-9.1 2.2-38.7 2.6l-32.3.4v-41.6c0-40.5.1-41.6 1.9-41.6 1.1 0 2.3-.5 2.7-1.1.5-.8 9.1-1 30.3-.7 27.4.4 30.1.6 36 2.7zM216 455v167h-55V288h55v167zm251.1-101.5c9.5 31.7 33.7 57.4 72.2 76.6 16.4 8.3 29.1 13.3 57.2 22.8 38.2 13 53.6 21.9 61 35.2 2.8 5.1 3 6.1 3 16.4 0 13-1.6 17.5-9 25.4-8.9 9.5-21.1 13.7-37.6 12.9-8.5-.4-10.6-.9-17.3-4.1-14.4-6.8-24.4-20.5-26.8-36.6l-1-7.1-45.5.2-45.4.3-1-4c-2.2-9.1-8.4-22.9-14.1-31.7-7.6-11.6-26.2-30.3-40.5-40.8-5.7-4.1-10.3-7.9-10.2-8.5 0-.5 3-3.3 6.5-6 9.8-7.5 23.6-22.4 29.3-31.6 5.3-8.7 10.1-20.6 12.1-30.4 1.9-9.3 2.1-9.5 3.6-2.5.8 3.6 2.3 9.6 3.5 13.5zM325.6 466.1c9.1 1.6 17.7 6.3 23.9 13 7.5 8.2 9.9 14.7 10 26.9 0 8.6-.3 10.1-3.2 16.2-5.6 11.9-16.1 19.5-30.3 21.7-3.6.6-22.8 1.1-43.2 1.1H246v-80h36.8c22.1 0 39.2.4 42.8 1.1zm221 52.6c.3 1 2.2 5.2 4.1 9.3 5.4 11.4 16.7 22.3 29.3 28.3 10.2 4.9 18.5 7.2 29.3 8.3l6.7.7v58l-9.5-.7c-33.7-2.3-63.3-14.6-85.7-35.5-19.5-18.3-30.1-39.1-33.2-65.4l-.6-4.7h29.6c27.2 0 29.5.1 30 1.7z"/><path d="M345.5 268c3.6 1.7 7 1.9 35.3 1.9 29.3.1 31.3 0 31-1.7-.3-1.6-2.9-1.7-35.3-1.9-34.8-.2-35-.2-31 1.7zM365.5 283c1.7 1.9 3 2 27.7 2 24.2 0 25.9-.1 25.6-1.8-.3-1.6-2.5-1.7-27.7-2l-27.4-.2 1.8 2zM375.2 297.2c.4 1 6.2 1.4 24.7 1.6 19.3.2 24.2 0 23.9-1-.4-1-6.2-1.4-24.7-1.6-19.3-.2-24.2 0-23.9 1zM381.7 313c.5 1.9 1.4 2 21.9 2 20.7 0 21.4-.1 21.4-2s-.7-2-21.9-2c-21.4 0-21.9 0-21.4 2zM383.2 327.7c.3 1.6 2.2 1.8 21.1 2.1 20.2.2 20.7.2 20.7-1.8 0-1.9-.6-2-21.1-2-19.5 0-21 .1-20.7 1.7zM382 343c-1.1 2-.9 2 19.2 1.8 18.4-.3 20.3-.5 20.6-2.1.3-1.6-1.1-1.7-19.2-1.7-18.6 0-19.6.1-20.6 2zM378.2 357.2c-.7.7-1.2 1.6-1.2 2 0 .4 8.5.8 19 .8 17.9 0 19-.1 20-2 1.1-2 .8-2-17.8-2-13.3 0-19.2.4-20 1.2zM367 372.5c-1.1 1.3 1.1 1.5 18.8 1.5 16.5 0 20.2-.3 21.2-1.5 1.1-1.3-1.1-1.5-18.8-1.5-16.5 0-20.2.3-21.2 1.5zM351.4 387.5c-1.7 1.3.5 1.4 19.7 1.5 18.1 0 21.9-.2 22.9-1.5 1.1-1.3-1.2-1.5-19.7-1.5-16.8 0-21.3.3-22.9 1.5zM363 447.5c2 1.1 7.3 1.4 24.4 1.5 19.5 0 21.8-.2 20-1.5-1.5-1.2-6.2-1.4-24.4-1.4-20 0-22.2.1-20 1.4zM380 462.5c1 1.2 4.7 1.5 21.7 1.5 18.2 0 20.4-.2 19.3-1.5-1-1.2-4.7-1.5-21.7-1.5-18.2 0-20.4.2-19.3 1.5zM390.2 478c1.2 1.9 2.4 2 21 2 10.9 0 19.8-.4 19.8-.8 0-2.8-3-3.2-22.2-3.2-19.6 0-19.8 0-18.6 2zM395.7 493c.5 1.9 1.4 2 21.4 2 11.5 0 20.9-.2 20.9-.4s-.3-1.1-.6-2c-.5-1.4-3.4-1.6-21.4-1.6-20.3 0-20.8 0-20.3 2zM397 507c0 1.9.6 2 22.6 2 20.9 0 22.5-.1 22.2-1.8-.3-1.5-2.3-1.7-22.6-2-21.7-.2-22.2-.2-22.2 1.8zM395 522.5c0 1.3 3.4 1.5 24.5 1.5s24.5-.2 24.5-1.5-3.4-1.5-24.5-1.5-24.5.2-24.5 1.5zM388.6 537.5c-.5 1.3 2.9 1.5 26.3 1.5 23 0 27-.2 27.5-1.5s-2.9-1.5-26.3-1.5c-23 0-27 .2-27.5 1.5zM376.5 553c-1.8 2-1.7 2 29.3 2 30.1 0 31.2-.1 32.2-2 1.1-2 .8-2-29.3-2-29.1 0-30.5.1-32.2 2zM354 567.5c-2.2 1.3 2.3 1.4 37.1 1.5 34.4 0 39.8-.2 40.3-1.5s-4.1-1.5-37.2-1.5c-30.8.1-38.2.3-40.2 1.5z"/></svg>